<?xml version="1.0" standalone="no"?>
<!DOCTYPE svg PUBLIC "-//W3C//DTD SVG 20010904//EN"
 "http://www.w3.org/TR/2001/REC-SVG-20010904/DTD/svg10.dtd">
<svg version="1.0" xmlns="http://www.w3.org/2000/svg"
 width="130.000000pt" height="129.000000pt" viewBox="0 0 130.000000 129.000000"
 preserveAspectRatio="xMidYMid meet">

<g transform="translate(0.000000,129.000000) scale(0.100000,-0.100000)"
fill="#000000" stroke="none">
<path d="M513 1265 c-79 -17 -175 -60 -204 -91 l-22 -24 55 0 c31 0 73 6 95
14 83 29 211 38 317 22 54 -8 102 -18 105 -23 3 -5 40 -10 81 -12 l75 -3 -23
25 c-78 83 -313 128 -479 92z"/>
<path d="M595 940 c-62 -13 -96 -28 -140 -64 -41 -34 -87 -108 -99 -158 l-6
-28 75 0 75 0 0 75 0 75 50 0 49 0 3 -67 3 -68 49 68 50 67 69 0 c78 0 78 3 5
-81 -26 -30 -48 -59 -48 -62 0 -4 45 -7 100 -7 115 0 117 3 79 84 -54 117
-193 190 -314 166z"/>
<path d="M350 601 c0 -34 46 -125 82 -161 58 -58 111 -82 189 -88 94 -7 158
17 224 82 53 52 93 131 82 161 -8 20 -147 22 -147 3 0 -7 14 -37 30 -67 17
-30 30 -58 30 -63 0 -4 -27 -8 -61 -8 l-60 0 -31 70 c-17 39 -34 70 -39 70
-21 0 -49 -55 -49 -96 l0 -44 -50 0 -49 0 -3 73 -3 72 -72 3 c-44 2 -73 -1
-73 -7z"/>
</g>
</svg>
