<?xml version="1.0" encoding="UTF-8"?>
<svg xmlns="http://www.w3.org/2000/svg" xmlns:xlink="http://www.w3.org/1999/xlink" width="50px" height="50px" viewBox="0 0 50 50" version="1.1">
<defs>
<clipPath id="clip1">
  <path d="M 8.351562 19.15625 L 41.613281 19.15625 L 41.613281 30.816406 L 8.351562 30.816406 Z M 8.351562 19.15625 "/>
</clipPath>
<clipPath id="clip2">
  <path d="M 13.039062 21.363281 L 36.921875 21.363281 L 36.921875 28.613281 L 13.039062 28.613281 Z M 13.039062 21.363281 "/>
</clipPath>
</defs>
<g id="surface1">
<rect x="0" y="0" width="50" height="50" style="fill:rgb(100%,100%,100%);fill-opacity:1;stroke:none;"/>
<g clip-path="url(#clip1)" clip-rule="nonzero">
<path style=" stroke:none;fill-rule:nonzero;fill:rgb(0%,0%,0%);fill-opacity:1;" d="M 41.53125 21.65625 C 41.375 20.445312 40.929688 20.109375 40.929688 20.109375 C 39.5625 18.863281 37.855469 19.132812 36.320312 19.3125 C 33.613281 19.316406 30.914062 19.585938 28.214844 19.726562 C 22.542969 19.75 16.820312 19.390625 11.179688 20.273438 C 10.648438 20.546875 7.800781 20.328125 8.445312 21.8125 C 8.613281 22.429688 9.230469 23.113281 9.210938 23.679688 C 9.292969 23.78125 9.410156 23.550781 9.460938 23.695312 C 9.636719 24.082031 9.921875 23.898438 10.15625 24.125 C 9.832031 24.734375 10.066406 25.238281 10.289062 25.769531 C 9.894531 25.90625 9.390625 25.84375 9.164062 26.300781 C 9.140625 26.632812 9.011719 26.570312 8.875 26.554688 C 8.773438 26.542969 8.566406 26.582031 8.601562 26.683594 C 8.71875 27.039062 8.214844 27.246094 8.53125 27.59375 C 8.3125 27.972656 8.679688 28.300781 8.632812 28.707031 C 8.625 28.792969 8.660156 28.863281 8.714844 28.878906 C 8.957031 28.984375 8.601562 29.1875 8.640625 29.410156 C 11.128906 30.914062 13.824219 29.875 16.371094 30.566406 C 17.03125 30.082031 16.535156 30.738281 16.800781 30.636719 C 17.007812 30.515625 17.15625 31.007812 17.390625 30.730469 C 17.425781 30.652344 17.371094 30.460938 17.5 30.496094 C 17.566406 30.515625 17.625 30.511719 17.636719 30.402344 C 17.648438 30.234375 17.527344 30.339844 17.492188 30.25 C 17.847656 29.808594 17.761719 30.859375 18.09375 30.816406 C 18.078125 30.6875 17.980469 30.503906 18.179688 30.527344 C 18.375 30.34375 18.382812 30.191406 18.558594 30.605469 C 18.5625 30.695312 18.59375 30.757812 18.644531 30.800781 C 19.191406 30.351562 19.738281 30.960938 20.308594 30.757812 C 20.664062 30.535156 21 30.878906 21.355469 30.792969 C 21.480469 30.726562 21.609375 30.605469 21.730469 30.808594 C 23.203125 30.851562 24.773438 30.667969 26.171875 30.816406 C 29.90625 30.542969 33.898438 30.925781 37.839844 30.566406 C 38.769531 30.429688 39.730469 30.234375 40.636719 30.078125 C 40.636719 30.078125 41.371094 29.644531 41.371094 27.710938 C 41.371094 25.773438 41.527344 26.015625 41.550781 24.472656 C 41.574219 22.929688 41.683594 22.867188 41.527344 21.65625 Z M 41.53125 21.65625 "/>
</g>
<g clip-path="url(#clip2)" clip-rule="nonzero">
<path style=" stroke:none;fill-rule:nonzero;fill:rgb(100%,100%,100%);fill-opacity:1;" d="M 13.691406 22.996094 C 13.691406 23.179688 13.742188 23.332031 13.839844 23.449219 C 13.9375 23.566406 14.066406 23.660156 14.230469 23.738281 C 14.394531 23.8125 14.574219 23.878906 14.769531 23.9375 C 14.964844 23.996094 15.160156 24.0625 15.355469 24.132812 C 15.550781 24.203125 15.726562 24.292969 15.890625 24.398438 C 16.050781 24.503906 16.179688 24.636719 16.28125 24.804688 C 16.382812 24.976562 16.429688 25.1875 16.429688 25.441406 C 16.429688 25.78125 16.34375 26.0625 16.171875 26.28125 C 15.996094 26.503906 15.765625 26.664062 15.480469 26.769531 C 15.191406 26.875 14.875 26.925781 14.535156 26.925781 C 14.289062 26.925781 14.039062 26.902344 13.785156 26.847656 C 13.53125 26.796875 13.285156 26.722656 13.039062 26.621094 L 13.085938 25.417969 L 13.441406 25.417969 L 13.566406 26.355469 L 13.492188 26.230469 C 13.664062 26.308594 13.84375 26.367188 14.027344 26.40625 C 14.214844 26.445312 14.394531 26.464844 14.570312 26.464844 C 14.800781 26.464844 15.011719 26.429688 15.199219 26.359375 C 15.390625 26.289062 15.542969 26.183594 15.660156 26.042969 C 15.777344 25.90625 15.835938 25.730469 15.835938 25.519531 C 15.835938 25.324219 15.789062 25.167969 15.6875 25.046875 C 15.585938 24.929688 15.457031 24.832031 15.296875 24.753906 C 15.132812 24.675781 14.957031 24.605469 14.761719 24.546875 C 14.566406 24.488281 14.371094 24.425781 14.175781 24.359375 C 13.980469 24.292969 13.800781 24.210938 13.640625 24.109375 C 13.480469 24.003906 13.347656 23.871094 13.25 23.707031 C 13.148438 23.542969 13.097656 23.335938 13.097656 23.082031 C 13.097656 22.769531 13.175781 22.507812 13.332031 22.300781 C 13.484375 22.09375 13.691406 21.941406 13.960938 21.835938 C 14.226562 21.734375 14.523438 21.683594 14.847656 21.683594 C 15.078125 21.683594 15.316406 21.707031 15.566406 21.757812 C 15.816406 21.804688 16.058594 21.882812 16.300781 21.984375 L 16.242188 23.132812 L 15.875 23.132812 L 15.765625 22.253906 L 15.851562 22.34375 C 15.707031 22.277344 15.546875 22.230469 15.375 22.195312 C 15.207031 22.160156 15.035156 22.144531 14.863281 22.144531 C 14.664062 22.144531 14.472656 22.171875 14.292969 22.226562 C 14.113281 22.285156 13.964844 22.375 13.855469 22.5 C 13.746094 22.625 13.691406 22.789062 13.691406 22.996094 Z M 18.355469 22.972656 L 18.355469 26.488281 L 18.289062 26.40625 L 18.929688 26.546875 L 18.929688 26.859375 L 17.199219 26.859375 L 17.199219 26.546875 L 17.835938 26.40625 L 17.769531 26.488281 L 17.769531 23.398438 L 17.828125 23.464844 L 17.199219 23.332031 L 17.199219 23.015625 Z M 18.019531 22.179688 C 17.90625 22.179688 17.816406 22.144531 17.742188 22.070312 C 17.667969 22 17.632812 21.898438 17.632812 21.769531 C 17.632812 21.640625 17.667969 21.539062 17.746094 21.46875 C 17.820312 21.398438 17.914062 21.363281 18.027344 21.363281 C 18.144531 21.363281 18.238281 21.394531 18.3125 21.464844 C 18.386719 21.53125 18.421875 21.636719 18.421875 21.769531 C 18.421875 21.902344 18.382812 22.003906 18.304688 22.074219 C 18.226562 22.144531 18.132812 22.179688 18.019531 22.179688 Z M 21.035156 28.613281 C 20.464844 28.613281 20.039062 28.527344 19.753906 28.363281 C 19.472656 28.195312 19.332031 27.957031 19.332031 27.644531 C 19.332031 27.425781 19.402344 27.230469 19.550781 27.058594 C 19.695312 26.886719 19.910156 26.738281 20.195312 26.613281 L 20.203125 26.730469 C 20.046875 26.71875 19.925781 26.6875 19.84375 26.628906 C 19.761719 26.574219 19.71875 26.496094 19.71875 26.390625 C 19.71875 26.351562 19.722656 26.3125 19.734375 26.273438 C 19.742188 26.234375 19.761719 26.179688 19.789062 26.109375 C 19.816406 26.039062 19.855469 25.945312 19.914062 25.824219 C 19.96875 25.703125 20.042969 25.546875 20.128906 25.351562 L 20.144531 25.453125 C 19.933594 25.34375 19.773438 25.191406 19.660156 24.996094 C 19.546875 24.804688 19.492188 24.578125 19.492188 24.3125 C 19.492188 23.886719 19.632812 23.550781 19.914062 23.300781 C 20.195312 23.054688 20.582031 22.929688 21.074219 22.929688 C 21.40625 22.929688 21.691406 22.988281 21.929688 23.105469 L 21.769531 23.066406 L 22.917969 23.015625 L 22.925781 23.367188 L 22.242188 23.5 L 22.296875 23.410156 C 22.398438 23.507812 22.476562 23.628906 22.53125 23.769531 C 22.582031 23.914062 22.609375 24.074219 22.609375 24.253906 C 22.609375 24.683594 22.464844 25.023438 22.179688 25.273438 C 21.890625 25.519531 21.507812 25.644531 21.03125 25.644531 C 20.757812 25.644531 20.503906 25.597656 20.277344 25.507812 L 20.40625 25.441406 L 20.21875 26.398438 L 20.09375 26.328125 L 21.527344 26.328125 C 21.996094 26.328125 22.351562 26.417969 22.597656 26.601562 C 22.839844 26.785156 22.964844 27.046875 22.964844 27.386719 C 22.964844 27.785156 22.800781 28.085938 22.476562 28.296875 C 22.148438 28.507812 21.671875 28.613281 21.035156 28.613281 Z M 21.089844 28.164062 C 21.53125 28.164062 21.863281 28.105469 22.078125 27.980469 C 22.292969 27.859375 22.398438 27.675781 22.398438 27.433594 C 22.398438 27.21875 22.320312 27.054688 22.15625 26.945312 C 21.996094 26.835938 21.753906 26.78125 21.433594 26.78125 L 20.269531 26.78125 L 20.4375 26.742188 C 20.046875 26.988281 19.851562 27.25 19.851562 27.535156 C 19.851562 27.746094 19.953125 27.902344 20.152344 28.007812 C 20.355469 28.113281 20.667969 28.164062 21.089844 28.164062 Z M 21.03125 25.234375 C 21.34375 25.234375 21.585938 25.152344 21.761719 24.980469 C 21.9375 24.8125 22.023438 24.578125 22.023438 24.269531 C 22.023438 23.960938 21.941406 23.730469 21.777344 23.574219 C 21.609375 23.417969 21.375 23.339844 21.066406 23.339844 C 20.753906 23.339844 20.511719 23.421875 20.339844 23.582031 C 20.171875 23.746094 20.085938 23.984375 20.085938 24.296875 C 20.085938 24.601562 20.167969 24.832031 20.328125 24.992188 C 20.492188 25.15625 20.726562 25.234375 21.03125 25.234375 Z M 26.484375 24.019531 L 26.484375 26.53125 L 26.390625 26.398438 L 27.0625 26.53125 L 27.0625 26.855469 L 26.039062 26.898438 L 25.949219 26.195312 L 26 26.214844 C 25.785156 26.449219 25.554688 26.628906 25.304688 26.746094 C 25.054688 26.867188 24.8125 26.925781 24.578125 26.925781 C 24.296875 26.925781 24.058594 26.835938 23.863281 26.65625 C 23.667969 26.476562 23.570312 26.203125 23.570312 25.835938 C 23.570312 25.546875 23.628906 25.328125 23.753906 25.171875 C 23.875 25.019531 24.042969 24.910156 24.257812 24.847656 C 24.472656 24.785156 24.722656 24.753906 25.003906 24.753906 L 25.964844 24.753906 L 25.898438 24.824219 L 25.898438 24.121094 C 25.898438 23.855469 25.828125 23.660156 25.6875 23.546875 C 25.542969 23.433594 25.347656 23.375 25.101562 23.375 C 24.96875 23.375 24.828125 23.386719 24.679688 23.414062 C 24.53125 23.441406 24.371094 23.484375 24.207031 23.542969 L 24.292969 23.449219 L 24.222656 24.113281 L 23.832031 24.113281 L 23.773438 23.207031 C 24.050781 23.113281 24.3125 23.042969 24.558594 22.996094 C 24.800781 22.953125 25.027344 22.929688 25.230469 22.929688 C 25.621094 22.929688 25.929688 23.015625 26.152344 23.1875 C 26.375 23.363281 26.484375 23.640625 26.484375 24.019531 Z M 24.164062 25.785156 C 24.164062 26.023438 24.21875 26.199219 24.335938 26.3125 C 24.449219 26.425781 24.59375 26.480469 24.769531 26.480469 C 24.941406 26.480469 25.128906 26.425781 25.339844 26.320312 C 25.546875 26.21875 25.746094 26.074219 25.941406 25.894531 L 25.898438 26.046875 L 25.898438 25.066406 L 25.964844 25.132812 L 25.09375 25.132812 C 24.746094 25.132812 24.503906 25.183594 24.367188 25.289062 C 24.230469 25.394531 24.164062 25.558594 24.164062 25.785156 Z M 31.617188 23.332031 L 31.617188 23.015625 L 33.089844 22.964844 L 33.089844 23.289062 L 32.578125 23.410156 L 32.679688 23.324219 L 31.675781 26.875 L 31.03125 26.875 L 30.078125 23.417969 L 30.195312 23.417969 L 29.1875 26.875 L 28.542969 26.875 L 27.582031 23.339844 L 27.671875 23.425781 L 27.164062 23.332031 L 27.164062 23.015625 L 28.746094 22.964844 L 28.746094 23.289062 L 28.082031 23.40625 L 28.144531 23.332031 L 28.960938 26.515625 L 28.863281 26.515625 L 29.84375 23.007812 L 30.484375 22.964844 L 31.425781 26.539062 L 31.332031 26.539062 L 32.1875 23.347656 L 32.253906 23.425781 Z M 36.339844 24.019531 L 36.339844 26.53125 L 36.246094 26.398438 L 36.917969 26.53125 L 36.917969 26.855469 L 35.894531 26.898438 L 35.804688 26.195312 L 35.859375 26.214844 C 35.644531 26.449219 35.410156 26.628906 35.160156 26.746094 C 34.914062 26.867188 34.671875 26.925781 34.4375 26.925781 C 34.152344 26.925781 33.914062 26.835938 33.71875 26.65625 C 33.523438 26.476562 33.425781 26.203125 33.425781 25.835938 C 33.425781 25.546875 33.488281 25.328125 33.609375 25.171875 C 33.730469 25.019531 33.898438 24.910156 34.113281 24.847656 C 34.328125 24.785156 34.578125 24.753906 34.863281 24.753906 L 35.820312 24.753906 L 35.753906 24.824219 L 35.753906 24.121094 C 35.753906 23.855469 35.683594 23.660156 35.542969 23.546875 C 35.402344 23.433594 35.207031 23.375 34.957031 23.375 C 34.824219 23.375 34.683594 23.386719 34.535156 23.414062 C 34.386719 23.441406 34.230469 23.484375 34.0625 23.542969 L 34.152344 23.449219 L 34.078125 24.113281 L 33.691406 24.113281 L 33.632812 23.207031 C 33.910156 23.113281 34.171875 23.042969 34.414062 22.996094 C 34.660156 22.953125 34.882812 22.929688 35.089844 22.929688 C 35.480469 22.929688 35.785156 23.015625 36.007812 23.1875 C 36.230469 23.363281 36.339844 23.640625 36.339844 24.019531 Z M 34.019531 25.785156 C 34.019531 26.023438 34.078125 26.199219 34.191406 26.3125 C 34.304688 26.425781 34.453125 26.480469 34.628906 26.480469 C 34.796875 26.480469 34.988281 26.425781 35.195312 26.320312 C 35.402344 26.21875 35.605469 26.074219 35.800781 25.894531 L 35.753906 26.046875 L 35.753906 25.066406 L 35.820312 25.132812 L 34.949219 25.132812 C 34.601562 25.132812 34.359375 25.183594 34.226562 25.289062 C 34.089844 25.394531 34.019531 25.558594 34.019531 25.785156 Z M 34.019531 25.785156 "/>
</g>
</g>
</svg>
